HIERARCHY
ROOT Hips
{
	OFFSET 0.150609 86.114761 -2.657847
	CHANNELS 6 Xposition Yposition Zposition Xrotation Yrotation Zrotation
	JOINT Chest
	{
		OFFSET -1.468286 13.260475 2.856249
		CHANNELS 3 Xrotation Yrotation Zrotation
		JOINT Chest2
		{
			OFFSET -6.880818 17.894043 9.566825
			CHANNELS 3 Xrotation Yrotation Zrotation
			JOINT Chest3
			{
				OFFSET -1.592995 14.204201 4.303849
				CHANNELS 3 Xrotation Yrotation Zrotation
				JOINT Neck
				{
					OFFSET -2.648234 16.378036 4.833529
					CHANNELS 3 Xrotation Yrotation Zrotation
					JOINT Head
					{
						OFFSET -1.591986 10.352081 0.357183
						CHANNELS 3 Xrotation Yrotation Zrotation
						End Site
						{
							OFFSET -1.561450 10.358795 0.291117
						}
					}
				}
				JOINT LeftCollar
				{
					OFFSET 1.417407 12.025681 7.428211
					CHANNELS 3 Xrotation Yrotation Zrotation
					JOINT LeftUpArm
					{
						OFFSET 15.149960 8.599426 -2.242302
						CHANNELS 3 Xrotation Yrotation Zrotation
						JOINT LeftLowArm
						{
							OFFSET 12.293867 29.045151 12.040272
							CHANNELS 3 Xrotation Yrotation Zrotation
							JOINT LeftHand
							{
								OFFSET -4.200666 29.700500 -1.086977
								CHANNELS 3 Xrotation Yrotation Zrotation
								End Site
								{
									OFFSET -0.918077 6.491226 -0.237572
								}
							}
						}
					}
				}
				JOINT RightCollar
				{
					OFFSET -6.705566 11.329453 5.337362
					CHANNELS 3 Xrotation Yrotation Zrotation
					JOINT RightUpArm
					{
						OFFSET -15.393963 -3.090225 -7.872284
						CHANNELS 3 Xrotation Yrotation Zrotation
						JOINT RightLowArm
						{
							OFFSET -19.628466 -20.309937 18.492292
							CHANNELS 3 Xrotation Yrotation Zrotation
							JOINT RightHand
							{
								OFFSET -18.428940 -4.205780 23.316093
								CHANNELS 3 Xrotation Yrotation Zrotation
								End Site
								{
									OFFSET -4.027840 -0.919235 5.095951
								}
							}
						}
					}
				}
			}
		}
	}
	JOINT LeftUpLeg
	{
		OFFSET 7.701546 -0.523811 6.389910
		CHANNELS 3 Xrotation Yrotation Zrotation
		JOINT LeftLowLeg
		{
			OFFSET -28.295084 -14.448372 35.137180
			CHANNELS 3 Xrotation Yrotation Zrotation
			JOINT LeftFoot
			{
				OFFSET 6.908897 -44.055199 -3.460369
				CHANNELS 3 Xrotation Yrotation Zrotation
				JOINT LeftToe
				{
					OFFSET -0.805254 -18.613621 14.575466
					CHANNELS 3 Xrotation Yrotation Zrotation
					End Site
					{
						OFFSET -6.356361 -5.678232 22.066113
					}
				}
			}
		}
	}
	JOINT RightUpLeg
	{
		OFFSET -7.701528 0.523613 -6.389955
		CHANNELS 3 Xrotation Yrotation Zrotation
		JOINT RightLowLeg
		{
			OFFSET -15.439735 -44.347687 -6.237688
			CHANNELS 3 Xrotation Yrotation Zrotation
			JOINT RightFoot
			{
				OFFSET 19.724554 -30.441984 -26.168819
				CHANNELS 3 Xrotation Yrotation Zrotation
				JOINT RightToe
				{
					OFFSET -15.084366 -18.209541 0.656528
					CHANNELS 3 Xrotation Yrotation Zrotation
					End Site
					{
						OFFSET -22.230185 -5.106567 6.268810
					}
				}
			}
		}
	}
}
MOTION
Frames: 17
Frame Time: 0.033333
-2.575096 105.087181 -1.111732 -5.495636 37.279360 1.616571 -16.401974 1.538085 -10.804387 3.216230 -3.252407 6.586285 10.286570 -19.319436 -6.445412 13.773753 6.682752 3.455466 -0.000000 -0.000001 0.000000 20.663416 8.103466 -41.307925 36.373544 -11.160919 -85.493095 50.288695 1.258166 -27.743486 0.000000 0.000001 0.000000 6.953494 -19.606611 12.810767 41.599598 -8.062623 30.778287 17.292219 24.955643 11.907667 0.000001 -0.000001 -0.000003 56.252021 27.266047 46.066064 -39.993951 23.603174 -47.704039 -12.305253 -27.243022 -24.386031 -0.000002 -0.000001 0.000001 0.098784 -2.505087 21.138090 -12.641686 8.609787 -30.704333 1.175748 16.993485 24.823848 0.000001 -0.000002 -0.000001 
-2.577539 105.087158 -1.109657 -5.362176 37.471463 1.630685 -16.217338 1.443038 -10.568811 2.344012 -3.287071 5.983627 11.134709 -19.256725 -6.010596 13.415097 6.510357 3.406064 -0.000001 -0.000000 -0.000000 20.747444 7.319879 -41.116622 36.227323 -11.006062 -85.736947 50.633579 1.136996 -27.357165 -0.000000 0.000000 -0.000002 6.846090 -19.677534 12.815504 41.684877 -8.342677 30.852825 17.162744 25.012359 12.011671 -0.000002 0.000002 -0.000004 56.127646 27.215534 46.026046 -39.859232 23.553491 -47.612791 -12.290698 -27.468256 -24.481182 -0.000002 0.000000 0.000001 -0.140954 -2.506628 21.027980 -12.465398 8.488755 -30.617802 0.999331 17.107267 24.724788 0.000001 -0.000001 -0.000002 
-2.580049 105.083527 -1.108849 -4.988574 37.152397 1.527198 -16.748534 1.595301 -10.965222 3.129718 -3.309992 6.574064 10.565505 -19.085290 -6.257537 13.323873 6.583649 3.391399 -0.000001 -0.000001 0.000000 20.746826 7.486640 -41.265681 36.276504 -11.468947 -85.467407 50.538632 1.143345 -27.392916 0.000002 0.000001 0.000000 6.880851 -19.338730 12.911804 41.673682 -8.315847 30.786091 17.032767 25.044656 11.953344 0.000003 -0.000003 -0.000000 55.909695 27.011235 45.884938 -39.864153 23.640214 -47.580184 -12.386689 -27.330836 -24.440575 -0.000001 0.000000 0.000000 -0.243811 -2.515925 21.006645 -12.649655 8.573337 -30.893670 0.763790 17.389059 25.072805 -0.000000 -0.000001 -0.000001 
-2.590987 105.079079 -1.105973 -4.775180 37.599782 1.601265 -16.984964 1.667849 -11.120277 2.788645 -3.406944 6.390488 11.256349 -19.214468 -6.012473 13.048785 6.378496 3.449098 -0.000001 -0.000001 0.000001 20.646646 7.731890 -41.216695 36.354047 -11.342273 -85.544014 50.793812 1.272569 -27.588703 0.000000 0.000000 0.000002 6.907157 -19.335671 12.852373 41.641143 -8.148766 30.810293 16.952574 25.258198 11.501988 0.000003 0.000002 -0.000001 55.790775 27.067340 45.918600 -39.924430 23.682817 -47.668969 -12.294259 -27.768248 -24.626435 -0.000001 -0.000001 0.000001 -0.212059 -2.524122 21.059223 -13.115342 8.714472 -31.065667 1.138285 17.156590 24.952670 -0.000000 -0.000003 -0.000001 
-2.605426 105.076759 -1.101881 -4.946794 37.411528 1.600514 -16.447956 1.574285 -10.871855 2.489655 -3.397477 6.211949 11.218913 -19.317401 -6.027003 13.170089 6.576670 3.518453 -0.000000 0.000001 -0.000000 20.856852 7.583455 -41.334092 36.584966 -11.600902 -85.265220 50.921748 1.485833 -26.994736 0.000001 0.000000 0.000000 7.009683 -19.236915 13.019234 41.691816 -7.962127 30.614796 17.048728 25.046285 11.435364 0.000003 -0.000001 -0.000003 55.728644 26.996975 45.939719 -39.685195 23.398363 -47.463808 -12.496284 -27.492922 -24.612044 -0.000001 -0.000001 -0.000001 -0.198663 -2.503270 21.087818 -12.724905 8.604330 -30.832133 0.881632 17.152869 24.802225 0.000001 -0.000000 -0.000001 
-2.623064 105.073349 -1.099492 -4.592168 36.923863 1.576381 -16.782997 1.757531 -11.223089 2.753464 -3.281245 6.259288 11.062704 -19.094357 -5.861683 13.320217 6.368300 3.522141 -0.000000 -0.000000 -0.000000 20.969224 6.952960 -41.152405 36.316631 -10.977407 -85.720397 51.219688 1.288299 -26.697160 -0.000001 -0.000002 0.000002 6.931918 -19.377230 12.945542 41.971530 -8.443723 30.826549 17.191045 25.097537 11.634578 0.000002 -0.000001 0.000000 55.858998 27.065873 45.851429 -39.885381 23.513654 -47.627428 -12.222484 -27.250436 -24.249977 -0.000000 0.000000 0.000000 -0.173236 -2.569579 21.008660 -12.998682 8.768973 -31.191848 0.531848 17.672694 25.165671 0.000001 -0.000005 -0.000001 
-2.641925 105.070908 -1.092968 -4.916403 36.729984 1.661633 -16.638254 1.785333 -11.239873 2.372561 -3.377693 6.106165 11.400448 -19.070378 -5.852600 13.539639 6.407713 3.714995 -0.000001 0.000001 0.000001 20.927821 7.187410 -41.237469 36.290127 -10.761999 -85.676561 51.046706 1.059749 -26.858129 -0.000001 0.000000 0.000001 6.966101 -19.716140 13.143519 41.993827 -8.517498 30.696895 17.232782 24.833337 11.980831 0.000001 0.000002 -0.000003 56.161931 27.080483 45.901173 -40.039757 23.558200 -47.583319 -12.092812 -27.104332 -24.079671 -0.000001 0.000000 -0.000001 0.232175 -2.525422 21.143896 -12.893697 8.787633 -30.884633 0.539839 17.470068 25.098346 -0.000002 -0.000001 -0.000001 
-2.659694 105.065895 -1.085675 -5.291672 36.729253 1.670030 -16.419590 1.683250 -11.050481 3.058855 -3.351303 6.578791 10.657287 -18.966716 -6.295409 13.382638 6.169328 3.858151 -0.000001 -0.000001 0.000000 20.856954 7.537282 -41.236953 36.344126 -11.137645 -85.349620 50.482485 1.012299 -27.601156 -0.000001 0.000001 0.000000 6.972548 -19.876419 13.159989 41.800450 -8.294369 30.627415 17.523038 24.246987 12.066761 -0.000001 -0.000001 -0.000001 56.330472 27.124119 45.948462 -40.051307 23.648545 -47.489411 -12.151438 -27.368327 -24.236018 -0.000001 -0.000001 0.000001 0.551329 -2.539761 21.370062 -12.893918 8.686151 -30.901316 0.782007 17.497237 25.240037 0.000002 -0.000002 0.000001 
-2.678139 105.062462 -1.080949 -5.161160 36.743624 1.650484 -16.284404 1.647144 -10.938924 1.783846 -3.366057 5.697719 11.836612 -18.906858 -5.639576 13.559960 6.121401 4.025940 -0.000000 0.000001 0.000001 20.980451 6.958186 -41.055823 36.336900 -11.119324 -85.469121 50.428977 0.966956 -27.443613 -0.000002 0.000004 0.000001 6.956762 -20.383945 13.003290 41.940947 -8.372793 30.687193 17.523470 24.372589 12.074939 0.000001 -0.000001 -0.000001 56.127633 27.024566 45.855926 -39.931215 23.384995 -47.320148 -12.357895 -27.155475 -24.341582 -0.000001 0.000000 0.000002 0.297793 -2.527746 21.192136 -12.781238 8.694311 -30.662638 0.657812 17.342028 24.961509 -0.000000 0.000000 -0.000003 
-2.705001 105.053444 -1.071270 -4.911832 36.640939 1.539541 -16.866157 1.807984 -11.335531 2.916223 -3.457886 6.558010 11.145901 -18.848339 -6.113611 13.321475 5.822461 4.224359 -0.000000 -0.000000 -0.000001 20.884289 7.246700 -41.081809 36.253258 -11.357947 -85.379701 50.252782 0.862364 -27.482400 -0.000001 -0.000005 0.000003 6.889737 -20.497061 12.961265 41.891364 -8.468822 30.739680 17.329143 24.421336 12.323820 -0.000000 -0.000001 -0.000005 56.143687 27.261068 46.054661 -40.003458 23.455925 -47.498194 -12.385366 -27.204599 -24.366854 -0.000002 0.000000 0.000002 0.225753 -2.581083 21.309750 -12.983228 8.793745 -30.955298 0.561890 17.544318 25.126545 -0.000000 -0.000001 -0.000002 
-2.730891 105.051109 -1.061261 -5.389170 36.603735 1.536712 -16.488934 1.717191 -11.085874 2.697421 -3.485327 6.419832 11.084898 -19.082638 -6.251572 13.845264 5.878802 4.263836 0.000000 -0.000002 0.000001 20.863375 7.320881 -41.322525 36.186356 -10.881610 -85.329792 49.777524 0.893775 -27.875245 -0.000001 -0.000003 0.000002 6.857013 -20.901128 13.121121 41.871003 -8.637957 30.537233 17.644629 24.279741 12.536127 0.000001 -0.000001 -0.000001 56.266952 27.408880 46.210755 -39.965527 23.424349 -47.555592 -12.467518 -27.011182 -24.385362 -0.000001 0.000000 0.000002 0.481477 -2.558262 21.534828 -12.686315 8.695708 -30.677214 0.247195 17.622831 25.056020 -0.000000 -0.000001 -0.000002 
-2.760235 105.048721 -1.053862 -5.180444 36.693822 1.549786 -16.460355 1.724302 -11.101869 2.525319 -3.533483 6.326604 11.193011 -19.609244 -6.380357 13.568617 5.828698 4.245878 -0.000001 -0.000002 -0.000000 21.023693 7.288935 -41.383508 36.318301 -10.961390 -85.089964 50.012622 1.116670 -27.508667 0.000000 0.000000 0.000001 7.003108 -20.028447 13.210100 41.994728 -8.420268 30.657243 17.605164 24.179553 11.939473 0.000001 -0.000004 -0.000000 56.067817 27.357944 46.142743 -39.864713 23.235677 -47.388040 -12.410412 -27.180099 -24.448444 -0.000001 0.000000 -0.000000 0.352137 -2.573756 21.428923 -12.929173 8.765699 -30.710149 0.441043 17.441373 24.846306 0.000001 0.000004 0.000001 
-2.796230 105.045692 -1.050291 -5.321769 36.360106 1.492774 -16.132767 1.676569 -10.958814 2.369614 -3.577907 6.254356 11.237545 -19.620270 -6.391607 13.376995 5.649904 4.341128 -0.000001 0.000001 -0.000000 21.001705 7.436436 -41.447657 36.347641 -11.148059 -84.886902 50.154134 1.136637 -27.283385 0.000000 -0.000000 0.000002 6.981068 -20.269473 13.294600 42.087079 -8.540165 30.610104 17.682159 24.044807 12.071192 -0.000001 0.000002 -0.000003 56.182004 27.465774 46.264211 -39.899694 23.190987 -47.335253 -12.726650 -27.031310 -24.660217 -0.000001 0.000001 -0.000001 0.220142 -2.542710 21.356497 -12.724665 8.721142 -30.620749 0.506604 17.441031 24.986217 0.000000 0.000000 -0.000000 
-2.831783 105.043060 -1.037987 -5.256933 36.080577 1.461222 -16.111614 1.748492 -11.093393 1.822440 -3.539304 5.842443 11.755654 -19.362813 -5.928877 13.543659 5.534457 4.543190 -0.000001 0.000001 -0.000000 21.246623 6.478892 -41.172964 36.468115 -11.158813 -84.928847 50.084664 1.429846 -26.993483 -0.000002 -0.000003 0.000003 6.997574 -20.275036 13.452011 42.314381 -8.648484 30.631144 17.942207 23.577386 11.862136 0.000002 -0.000006 -0.000001 56.196734 27.464799 46.286064 -39.823223 23.126539 -47.241854 -12.831491 -26.984822 -24.699999 -0.000003 0.000000 0.000000 0.238465 -2.526382 21.367034 -12.540793 8.611841 -30.490723 0.040164 17.838091 25.231859 0.000001 -0.000003 0.000002 
-2.873506 105.039093 -1.018661 -4.758772 35.376446 1.269667 -16.575870 1.908143 -11.424399 1.461530 -3.655210 5.699859 12.458914 -19.225973 -5.633347 13.335727 5.443519 4.547451 -0.000000 0.000001 -0.000000 21.364089 5.697467 -41.035367 36.437113 -11.410290 -84.867525 49.843121 1.579723 -26.339817 0.000000 -0.000005 0.000003 6.966321 -20.516763 13.532381 42.147762 -8.624706 30.507771 17.731181 23.836247 11.827603 0.000001 -0.000003 -0.000002 55.960908 27.277242 46.219463 -39.691769 22.974777 -47.124532 -13.894748 -26.479100 -25.357188 -0.000000 0.000002 -0.000000 0.037887 -2.502717 21.345904 -12.699037 8.817295 -30.759590 -0.358853 18.043645 25.404977 0.000001 -0.000001 0.000001 
-2.919719 105.038643 -0.996548 -5.389199 35.193024 1.198721 -16.055084 1.737801 -10.989768 1.079888 -3.822248 5.578031 12.571680 -19.662269 -5.977543 13.875059 5.444131 4.764535 -0.000000 0.000001 0.000000 21.338747 5.509069 -40.942476 36.399642 -10.828994 -85.234108 49.589554 1.729510 -26.434241 -0.000001 0.000001 0.000000 6.964283 -19.900101 13.594143 42.466329 -8.856212 30.754037 17.460719 23.882436 11.550683 0.000001 -0.000001 -0.000001 56.148578 27.490536 46.381025 -39.381761 22.696705 -46.819693 -14.461522 -26.270349 -25.754770 -0.000001 -0.000001 -0.000000 0.372743 -2.551891 21.632018 -12.581239 8.757196 -30.686807 -0.410380 17.914990 25.136377 -0.000001 0.000000 -0.000000 
-2.970324 105.036194 -0.973357 -5.373755 34.490939 1.161561 -16.135559 1.839715 -11.176607 1.572061 -3.833979 5.905926 12.253709 -19.602293 -6.146165 13.876141 5.343808 4.839869 -0.000001 -0.000002 0.000001 21.122715 6.013826 -40.768450 36.485064 -11.092545 -85.221821 49.427381 1.926400 -26.824470 -0.000001 0.000001 0.000004 6.968209 -20.396576 13.264551 42.664886 -8.900863 30.921352 18.153625 23.784817 11.553443 0.000001 0.000002 -0.000001 56.346448 27.547150 46.312060 -39.361301 22.643276 -46.777145 -14.493677 -26.064224 -25.708142 -0.000001 0.000000 0.000001 0.262697 -2.556097 21.477822 -12.217309 8.744353 -30.636240 -0.428681 18.207316 25.773410 0.000001 0.000002 -0.000000 
